<svg t="1692671025576" class="icon" viewBox="0 0 1024 1024" version="1.1"
  xmlns="http://www.w3.org/2000/svg" p-id="5672" width="32" height="32">
  <path
    d="M1019.013184 854.326642c0 102.777052-255.05737 156.658986-507.073999 156.658986-251.894999 0-506.95237-53.881934-506.952369-156.658986 0-91.222235 196.43188-129.292315 280.964485-141.33365 12.527854-1.702815 24.2043 6.93289 26.028744 19.460744s-6.93289 24.2043-19.460743 26.028744C116.521202 783.659817 50.962822 830.730491 50.962822 854.326642c0 45.124599 179.646989 110.682979 461.097993 110.682979 281.451004 0 461.097993-65.55838 461.097992-110.682979 0-23.839411-66.166528-71.153344-243.867442-96.209051-12.527854-1.824445-21.285188-13.379261-19.582373-26.028744 1.824445-12.527854 13.500891-21.285188 25.907114-19.582374 85.262383 12.162965 283.397078 50.111415 283.397078 141.820169zM414.757097 308.452785c0-53.638674 43.543414-97.182088 97.182088-97.182088 53.638674 0 97.303718 43.665043 97.303718 97.182088 0 53.638674-43.665043 97.182088-97.303718 97.182089-53.517045 0.12163-97.182088-43.543414-97.182088-97.182089z m240.461813 0c0-78.937641-64.220454-143.158095-143.158095-143.158094s-143.158095 64.220454-143.158095 143.158094S433.123174 451.61088 512.060815 451.61088s143.158095-64.220454 143.158095-143.158095zM512.060815 61.666231c141.45528 0 256.395296 115.061646 256.395296 256.395296 0 195.945362-198.621214 415.973394-256.638555 476.180069-58.138971-59.112009-256.152037-274.761373-256.152038-476.180069 0-141.45528 114.940017-256.395296 256.395297-256.395296zM496.37059 843.379974l15.933484 14.838817 15.690225-15.082076c11.676446-11.189928 286.437819-277.193966 286.437819-525.196817 0-166.754246-135.617057-302.371303-302.371303-302.371303S209.689512 151.185652 209.689512 317.939898c0 254.692481 274.883003 514.493408 286.681078 525.440076z"
    fill="#0C83C9" p-id="5673"></path>
</svg>