<svg t="1718867139409" class="icon" viewBox="0 0 1024 1024" version="1.1" xmlns="http://www.w3.org/2000/svg" p-id="5337"
  >
  <path
    d="M0 195.008A195.008 195.008 0 0 1 195.008 0h633.984A195.008 195.008 0 0 1 1024 195.008v633.984A195.008 195.008 0 0 1 828.992 1024H195.008A195.008 195.008 0 0 1 0 828.992V195.008z m64 0v633.984C64 901.312 122.688 960 195.008 960h633.984C901.312 960 960 901.312 960 828.992V195.008C960 122.688 901.312 64 828.992 64H195.008C122.688 64 64 122.688 64 195.008z m141.952 7.872a18.304 18.304 0 0 1 14.336-6.336h245.376c12.224 0 20.48 8.448 20.48 21.12 0 12.736-8.256 21.12-20.48 21.12H269.312L480 456.512a23.232 23.232 0 0 1 6.144 14.784A23.232 23.232 0 0 1 480 486.144a19.328 19.328 0 0 1-28.608 0L240.832 268.48v202.88c0 12.672-8.256 21.12-20.48 21.12-12.288 0-20.48-8.448-20.48-21.12V219.84c0-6.336 2.048-12.672 6.144-16.896z m577.28 349.888c0-12.736 8.256-21.12 20.48-21.12 12.288 0 20.48 8.384 20.48 21.12v253.504a23.232 23.232 0 0 1-6.144 14.848 18.304 18.304 0 0 1-14.336 6.336H558.336c-12.224 0-20.48-8.448-20.48-21.12 0-12.736 8.256-21.12 20.48-21.12h196.352L544 567.488a20.928 20.928 0 0 1 0-29.632 19.328 19.328 0 0 1 28.608 0l210.56 217.664V552.64z"
    p-id="5338"></path>
</svg>