<svg t="1718866803633" class="icon" viewBox="0 0 1024 1024" version="1.1" xmlns="http://www.w3.org/2000/svg" p-id="5131"
  >
  <path
    d="M0 195.008A195.008 195.008 0 0 1 195.008 0h633.984A195.008 195.008 0 0 1 1024 195.008v633.984A195.008 195.008 0 0 1 828.992 1024H195.008A195.008 195.008 0 0 1 0 828.992V195.008z m64 0v633.984C64 901.312 122.688 960 195.008 960h633.984C901.312 960 960 901.312 960 828.992V195.008C960 122.688 901.312 64 828.992 64H195.008C122.688 64 64 122.688 64 195.008zM480 486.08a18.304 18.304 0 0 1-14.336 6.336H220.288c-12.288 0-20.48-8.448-20.48-21.12 0-12.736 8.192-21.12 20.48-21.12h196.288L205.952 232.448a23.232 23.232 0 0 1-6.144-14.784c0-4.288 2.048-10.624 6.144-14.848a19.328 19.328 0 0 1 28.608 0L445.184 420.48V217.6c0-12.672 8.192-21.12 20.48-21.12 12.224 0 20.48 8.448 20.48 21.12v251.52c0 6.272-2.112 12.672-6.208 16.896z m98.816 320.192c0 12.736-8.192 21.12-20.48 21.12-12.224 0-20.48-8.384-20.48-21.12V552.768c0-4.224 2.112-10.624 6.208-14.848a18.304 18.304 0 0 1 14.272-6.336h245.376c12.288 0 20.48 8.448 20.48 21.12 0 12.736-8.192 21.12-20.48 21.12H607.424l210.624 217.664a20.928 20.928 0 0 1 0 29.632 19.328 19.328 0 0 1-28.608 0L578.816 603.456v202.88z"
    p-id="5132"></path>
</svg>