<svg t="1688979639463" class="icon" viewBox="0 0 1024 1024" version="1.1"
  xmlns="http://www.w3.org/2000/svg" p-id="10678" width="25" height="25">
  <path
    d="M844.7 281.5h-80.9V189c0-69.9-56.8-126.8-126.6-126.8H410.7C341 62.2 284.2 119 284.2 189v92.6H179.3c-64.7 0-117.3 52.8-117.3 117v88.1h343.5c18.2-25.5 48.1-41.8 81.7-41.8H568c33.6 0 63.5 16.4 81.7 41.8H962v-88.1c0-64.5-52.8-117.1-117.3-117.1z m-186.1 0H389.5V189c0-11.9 9.5-21.4 21.2-21.4h226.6c11.7 0 21.2 9.5 21.2 21.4v92.5zM962 583v261.8c0 64.3-52.6 117-117.3 117H179.3c-64.5 0-117.3-52.6-117.3-117V583h324.1v43.9c0 55.6 45.3 101.1 101.1 101.1H568c55.8 0 101.1-45.5 101.1-101.1V583H962z"
    p-id="10679" fill="#1296db"></path>
  <path
    d="M588.2 546v80.9c0 10.9-9.3 20.2-20.2 20.2h-80.9c-10.9 0-20.2-9.3-20.2-20.2V546c0-11.1 9.3-20.2 20.2-20.2H568c10.9-0.1 20.2 9 20.2 20.2z"
    p-id="10680" fill="#1296db"></path>
</svg>