<svg t="1688700699595" class="icon" viewBox="0 0 1024 1024" version="1.1"
  xmlns="http://www.w3.org/2000/svg" p-id="14042" width="16" height="16">
  <path
    d="M664.7 265.6l-519.4 96.7-7.8 7.8v332.7l10.2 10.4 712.3 55 1.2-1.8 4.5-5.4-194.1-488.5-6.9-6.9z m59.4-147.2c45.1 0 83.4 38.8 83.4 84.4 0 33.7-14.8 61-39.3 75.1l-8.5 4.2-3.4 1.1 191.5 452.5 1.2 0.1c23.8 2.6 45.9 15.3 56.7 32.4l3.5 6.6 2.4 7c13.1 33.1 11.4 64.7-7 89.5-19.4 26.2-51.6 38.9-81.2 32.7-29.8 0-55.6-15.6-69-40.1l-4-8.5-2.7-8.1-685.1-49.1-2.2 6.8c-9.5 23.8-29.7 40.9-54.6 46.6l-9.5 1.6-8.9 0.5C42.3 853.7 4 814.9 4 769.3c0-33.7 14.8-61 39.3-75.1l8.5-4.2 7.5-2.7V385.6l-7.5-2.6C28 373.1 11.5 351.9 6 324.3l-1.5-10.6-0.4-10c0-44.8 37.5-78.8 83.4-78.8 29.8 0 55.6 15.6 69 40.1l4 8.5 1.8 5.3L648 176.3l0.2-0.9c7.8-28.1 29.7-48.6 57.5-54.9l9.5-1.6 8.9-0.5z"
    p-id="14043"></path>
</svg>