<svg t="1688700548539" class="icon" viewBox="0 0 1024 1024" version="1.1"
  xmlns="http://www.w3.org/2000/svg" p-id="5996" width="16" height="16">
  <path
    d="M419.2 102.4c51.2 0 92.8 41.6 92.8 96 0 25.6-9.6 51.2-28.8 70.4l166.4 416c19.2-12.8 44.8-16 67.2-9.6l172.8-272c-19.2-32-12.8-76.8 19.2-99.2 32-22.4 73.6-12.8 96 22.4 19.2 32 12.8 76.8-19.2 99.2-9.6 6.4-25.6 12.8-38.4 12.8l-176 275.2c28.8 41.6 19.2 102.4-19.2 131.2-41.6 32-99.2 22.4-128-22.4-16-22.4-19.2-48-16-73.6L422.4 291.2h-3.2c-12.8 0-22.4-3.2-32-6.4l-208 243.2c25.6 44.8 6.4 102.4-38.4 128s-99.2 6.4-124.8-38.4-6.4-102.4 38.4-128c22.4-12.8 51.2-16 76.8-6.4l208-243.2c-25.6-44.8-6.4-102.4 38.4-128 12.8-6.4 28.8-9.6 41.6-9.6z"
    p-id="5997"></path>
</svg>