<?xml version="1.0" standalone="no"?>
<!DOCTYPE svg PUBLIC "-//W3C//DTD SVG 1.1//EN" "http://www.w3.org/Graphics/SVG/1.1/DTD/svg11.dtd" >
<!--
2013-9-30: Created.
-->
<svg>
<metadata>
Created by iconfont
</metadata>
<defs>

<font id="iconfont" horiz-adv-x="1024" >
  <font-face
    font-family="iconfont"
    font-weight="500"
    font-stretch="normal"
    units-per-em="1024"
    ascent="896"
    descent="-128"
  />
    <missing-glyph />
    
    <glyph glyph-name="fullscreen-exit" unicode="&#59052;" d="M706.342 123.84h156.238c5.923-0.132 11.888 2.019 16.408 6.539 8.784 8.784 8.782 23.026 0 31.808-4.469 4.469-10.349 6.637-16.204 6.558l-0.001 0.078-210.741-0.001c-0.085 0-0.165-0.024-0.249-0.026-0.445-0.003-0.882-0.103-1.326-0.133-1.846-0.13-3.614-0.48-5.31-1.028-0.586-0.187-1.189-0.31-1.762-0.547-0.748-0.312-1.425-0.742-2.131-1.13-0.575-0.316-1.174-0.568-1.725-0.938-1.223-0.819-2.365-1.749-3.401-2.785-1.037-1.038-1.967-2.179-2.785-3.401-0.368-0.55-0.619-1.147-0.934-1.72-0.371-0.674-0.799-1.313-1.1-2.028-0.015-0.033-0.019-0.072-0.034-0.107-0.236-0.57-0.357-1.169-0.543-1.754-0.554-1.704-0.905-3.482-1.034-5.339-0.029-0.437-0.128-0.868-0.132-1.306-0.001-0.085-0.025-0.164-0.025-0.249l-0.001-208.007h0.030c0.003-5.753 2.198-11.504 6.586-15.892 8.784-8.784 23.024-8.784 31.808 0 4.466 4.467 6.636 10.342 6.56 16.195l-0.001 153.406 197.855-197.855c8.784-8.784 23.024-8.784 31.807 0 8.784 8.784 8.784 23.024 0 31.808l-197.854 197.855zM631.089 429.42c0.004-0.444 0.103-0.882 0.133-1.325 0.131-1.846 0.48-3.615 1.028-5.311 0.188-0.587 0.311-1.189 0.547-1.762 0.312-0.749 0.743-1.425 1.131-2.131 0.315-0.576 0.568-1.174 0.937-1.726 0.819-1.223 1.75-2.365 2.785-3.4 1.037-1.037 2.179-1.967 3.401-2.785 0.548-0.369 1.147-0.619 1.72-0.934 0.673-0.371 1.313-0.799 2.028-1.101 0.034-0.013 0.072-0.019 0.107-0.033 0.57-0.236 1.169-0.357 1.754-0.544 1.704-0.553 3.482-0.905 5.339-1.033 0.437-0.030 0.869-0.129 1.307-0.132 0.085-0.001 0.164-0.026 0.249-0.026l208.007 0.029c5.753 0.003 11.505 2.197 15.893 6.586 8.784 8.784 8.784 23.024 0 31.808-4.467 4.466-10.342 6.635-16.195 6.559l-153.407-0 197.854 197.855c8.784 8.784 8.784 23.024 0 31.807-8.783 8.784-23.023 8.784-31.807 0l-197.855-197.853 0.001 156.239c0.132 5.923-2.019 11.887-6.54 16.408-8.784 8.783-23.025 8.783-31.808 0-4.468-4.469-6.636-10.349-6.558-16.204h-0.078l0.001-210.743c-0-0.085 0.024-0.164 0.025-0.249zM395.935 146.587c-0.003 0.438-0.101 0.869-0.131 1.306-0.129 1.856-0.48 3.635-1.033 5.339-0.187 0.584-0.308 1.183-0.544 1.754-0.013 0.036-0.019 0.074-0.033 0.107-0.302 0.714-0.729 1.354-1.101 2.028-0.315 0.573-0.565 1.171-0.934 1.72-0.819 1.223-1.748 2.364-2.785 3.4-1.037 1.037-2.179 1.967-3.4 2.785-0.553 0.369-1.15 0.622-1.726 0.938-0.704 0.388-1.381 0.819-2.131 1.131-0.573 0.237-1.175 0.36-1.762 0.546-1.696 0.548-3.465 0.898-5.311 1.028-0.443 0.031-0.881 0.13-1.325 0.133-0.085 0.001-0.164 0.027-0.249 0.027l-210.743-0.077c-5.855 0.079-11.735-2.091-16.204-6.559-8.783-8.782-8.783-23.024 0-31.807 4.521-4.52 10.485-6.671 16.408-6.54l156.239 0.001-197.856-197.855c-8.783-8.784-8.783-23.024 0-31.808 8.784-8.783 23.024-8.783 31.808 0l197.855 197.856v-153.406c-0.076-5.853 2.093-11.729 6.559-16.195 8.784-8.784 23.024-8.784 31.808 0 4.389 4.389 6.584 10.14 6.586 15.893h0.030l-0.001 208.007c0.001 0.083-0.024 0.162-0.025 0.247zM316.144 450.653h-153.406c-5.853 0.076-11.729-2.094-16.195-6.56-8.783-8.784-8.784-23.024 0-31.807 4.389-4.389 10.14-6.584 15.894-6.587v-0.030l208.006 0.001c0.086 0 0.165 0.024 0.249 0.026 0.438 0.003 0.87 0.102 1.307 0.131 1.856 0.129 3.635 0.481 5.339 1.034 0.584 0.187 1.183 0.308 1.754 0.544 0.035 0.013 0.073 0.018 0.107 0.033 0.714 0.302 1.354 0.729 2.028 1.1 0.573 0.315 1.172 0.566 1.72 0.934 1.223 0.819 2.364 1.749 3.4 2.785 1.037 1.037 1.967 2.179 2.785 3.401 0.369 0.553 0.622 1.15 0.937 1.725 0.388 0.704 0.819 1.381 1.131 2.131 0.236 0.573 0.359 1.175 0.547 1.762 0.548 1.696 0.898 3.465 1.028 5.311 0.031 0.443 0.129 0.881 0.133 1.325 0.001 0.085 0.026 0.164 0.026 0.249l0.001 210.742-0.077 0.001c0.078 5.855-2.092 11.735-6.559 16.203-8.783 8.783-23.024 8.784-31.807 0-4.521-4.521-6.672-10.485-6.54-16.408l0.001-156.239-197.856 197.855c-8.784 8.784-23.024 8.784-31.807 0-8.783-8.784-8.784-23.024 0-31.808l197.853-197.853z"  horiz-adv-x="1024" />

    
    <glyph glyph-name="i" unicode="&#58922;" d="M512.000512 819.106726c-240.319367 0-435.097516-194.801684-435.097516-435.097516 0-240.276389 194.779172-435.115935 435.097516-435.115935 240.313228 0 435.096493 194.839547 435.096493 435.115935C947.095981 624.305041 752.313739 819.106726 512.000512 819.106726L512.000512 819.106726zM495.257176 151.246959c28.367071-3.294023 89.801259 71.111594 103.048981 69.563332 4.719488-0.539282 10.661827-7.027044 9.656941-15.521508-3.193739-27.440979-127.522372-131.900076-223.089961-120.800273-34.06791 3.997034-55.888891 22.810518-51.693336 58.768475 5.298679 45.429679 46.495964 119.248941 55.006801 134.61286l85.588307 158.823262c8.614192 16.239869 1.102101 25.767873-6.485715 26.629497-35.029818 4.063549-90.023316-72.949452-107.028619-70.981634-6.66377 0.766456-11.542894 8.090259-10.882861 13.755282 1.991354 17.023722 48.246841 51.915393 61.97654 62.778812 42.020022 31.57002 94.440929 53.281507 149.33005 46.895053 40.694841-4.715395 81.350796-34.380018 36.601616-122.241089l-89.601714-176.572508c-7.308453-13.535271-20.479427-35.997865-22.246677-51.135634C484.677213 159.213397 487.665267 152.128025 495.257176 151.246959L495.257176 151.246959zM690.796664 611.909733c-5.079692-43.557028-44.768623-71.559802-87.373976-66.596767-38.784328 4.510734-61.372789 33.04972-56.876382 71.848375 4.879124 41.666982 44.773739 71.52194 86.430488 66.662259C670.842193 679.438733 695.297165 650.699178 690.796664 611.909733L690.796664 611.909733zM690.796664 611.909733"  horiz-adv-x="1024" />

    
    <glyph glyph-name="huanjing" unicode="&#59081;" d="M511.935488 895.998464C229.198848 895.998464 0.002048 666.801664 0.002048 384.065024 0.002048 101.333504 229.198848-127.868416 511.935488-127.868416 794.667008-127.868416 1023.868928 101.333504 1023.868928 384.065024 1023.868928 666.801664 794.667008 895.998464 511.935488 895.998464ZM192.292629 257.80037C228.920599 465.700545 323.078519 542.858011 434.511362 573.817131 573.97128 612.679389 695.704283 584.812624 813.32982 640.196575 884.402018 673.656613 881.468692 613.597037 880.21939 603.946 862.223315 464.926185 788.679934 332.500619 631.476851 269.637292 460.019513 201.110577 290.798733 327.991652 168.042926 128.395006 167.137941 126.926569 165.543302 126.022134 163.817637 126.022134L148.320172 126.022134C144.626092 126.022134 142.238194 129.9234 143.895807 133.222048 189.955516 224.745806 256.3606 303.546499 341.131469 366.369174 417.52286 422.91568 508.910975 466.82042 613.755013 501.812914 622.244188 504.64715 618.662851 517.373264 609.946161 515.340825 529.554967 496.59971 456.90844 472.118987 389.475473 433.6622 319.004568 393.477841 254.181935 337.939423 192.292629 257.80037Z"  horiz-adv-x="1024" />

    
    <glyph glyph-name="tucengguanli" unicode="&#59001;" d="M108.31872 589.184l411.80672-178.95936 395.55584 178.95936-380.01664 192.39936zM520.12544 111.44704l-270.4896 117.56544-141.31712-63.6416 411.80672-178.95424 395.55584 178.95424-130.432 66.01728zM520.12544 313.55392l-270.4896 117.56544-141.31712-63.63136 411.80672-178.95936 395.55584 178.95936-130.432 66.01216z"  horiz-adv-x="1024" />

    
    <glyph glyph-name="tupian" unicode="&#58895;" d="M957.824 102.144c0-41.216-33.728-74.304-74.048-74.304H140.224c-41.216 0-74.048 33.856-74.048 74.304V666.176c0 41.152 33.728 73.984 74.048 73.984h742.72c41.088 0 73.92-33.728 73.92-73.984v-564.032h0.96z m-817.6 579.648a14.75 14.75 0 0 1-14.784-14.784v-564.864c0-8.32 6.592-14.848 14.784-14.848h742.72c8.192 0 14.72 6.592 14.72 14.848V666.176c0 8.192-6.592 14.784-14.72 14.784h-742.72v0.832z m134.08-238.464c-49.344 0-88.832 39.424-88.832 88.768 0 49.408 39.424 89.728 88.832 89.728 49.344 0 88.896-39.552 88.896-88.896s-39.552-89.6-88.896-89.6z m564.288-296.896h-653.12v89.536l148.864 148.8 74.048-73.92 237.568 236.8L839.36 354.432V146.24h-0.896v0.192z"  horiz-adv-x="1024" />

    
    <glyph glyph-name="excel" unicode="&#58975;" d="M111.270958 896h799.9904c58.024733-4.710243 106.953235-53.39982 112.70451-111.117363v-800.519449c-4.932102-57.871138-53.553415-106.646045-111.202693-112.329056H112.329056C54.526182-123.033766 5.768341-74.497783 0-16.848505V783.670944C5.000367 841.542082 53.553415 890.316989 111.270958 896m150.557114-273.279424c57.342089-79.493884 114.308723-159.363221 171.411887-239.078964-60.072664-84.18706-119.0019-169.227426-179.0063-253.482751 52.188127-0.529049 104.444519-0.068264 156.632645-0.221859 33.449552 50.29379 66.967368 100.570514 100.195061 151.086164 32.459718-50.515649 65.68741-100.50225 98.368987-150.79604 54.986967-0.61438 109.90567-0.221859 164.892637-0.22186-60.823573 86.695777-122.415119 172.862505-183.255758 259.472951 55.669611 77.975001 111.953602 155.489217 167.623213 233.395954-52.341722-0.153595-104.666378 0.682644-157.0081-0.460785-29.729142-44.747308-60.823573-88.590114-90.569781-133.422752-28.363855 44.747308-57.120229 89.272758-85.637679 133.951801-54.49205-0.068264-109.103563 0.221859-163.646812-0.221859z"  horiz-adv-x="1024" />

    
    <glyph glyph-name="dian" unicode="&#60446;" d="M512 272a112 112 0 1 1 0 224 112 112 0 0 1 0-224z"  horiz-adv-x="1024" />

    
    <glyph glyph-name="fanhui-" unicode="&#58812;" d="M512 791.2265288C285.76303955 791.2265288 104.7734712 610.23696045 104.7734712 384c0-226.23696045 180.98956836-407.2265288 407.2265288-407.2265288 226.23696045 0 407.2265288 180.98956836 407.2265288 407.2265288C919.2265288 610.23696045 738.23696045 791.2265288 512 791.2265288z m267.71373653-610.83979321l-30.16492805 45.24739209c-7.54123201 11.31184801-45.24739209 56.55924012-101.80663221 82.95355218-56.55924012 26.39431205-147.05402429 22.62369604-147.05402428 22.62369604v-105.57724822l-256.40188852 180.98956836 256.40188852 180.98956837v-109.34786422s60.32985613-3.770616 94.26540019-11.31184801c52.7886241-11.31184801 82.95355218-37.70616007 82.95355214-37.70616009 30.16492806-18.85308003 71.64170414-71.64170414 86.72416818-131.97156026 18.85308003-60.32985613 15.08246403-116.88909623 15.08246403-116.88909624z m0 0"  horiz-adv-x="1024" />

    
    <glyph glyph-name="location" unicode="&#58625;" d="M512.103132 575.879021a106.221743 106.221743 0 1 0-75.507022-31.354611A106.221743 106.221743 0 0 0 512.103132 575.879021m0 63.989002a170.850635 170.850635 0 1 1 120.939214-49.911422A169.570855 169.570855 0 0 1 512.103132 639.868023zM805.172761 771.685367a407.609942 407.609942 0 0 1-586.139257 0 431.285873 431.285873 0 0 1 0-599.576948L512.103132-128l293.069629 300.108419a431.285873 431.285873 0 0 1 0 599.576948z m-44.152411-557.344207l-248.917218-255.956007-248.917217 255.956007a365.377201 365.377201 0 0 0 0 508.712565 346.82039 346.82039 0 0 0 497.834435 0 365.377201 365.377201 0 0 0 0-508.712565z"  horiz-adv-x="1024" />

    
    <glyph glyph-name="xiaolian" unicode="&#59039;" d="M735.0272 273.3568c-13.6704 0-25.6-6.656-33.1776-16.896-44.9024-57.856-113.0496-95.0784-189.8496-95.0784-75.776 0-143.104 36.2496-188.0064 92.672a41.472 41.472 0 1 1-64.9216-51.0464 310.272 310.272 0 0 1 508.16 2.9184h-0.3584a40.96 40.96 0 0 1 9.5232 26.112 41.3696 41.3696 0 0 1-41.3696 41.3184z m-44.9536 288.768a89.088 89.088 0 1 1 0-178.1248 89.088 89.088 0 0 1 0 178.0736zM512 896C229.2224 896 0 666.7776 0 384s229.2224-512 512-512 512 229.2224 512 512S794.7776 896 512 896z m0-934.912a422.912 422.912 0 1 0 0 845.824 422.912 422.912 0 0 0 0-845.824zM333.9264 384a89.088 89.088 0 1 1 0 178.0736 89.088 89.088 0 0 1 0-178.0736z"  horiz-adv-x="1024" />

    
    <glyph glyph-name="quanping" unicode="&#59118;" d="M640 576a32 32 0 0 1 22.24 9.12L864 782.24v-144a32 32 0 0 1 32-32 32 32 0 0 1 32 32V860.32v1.92 1.44a32 32 0 0 1-32 32L672 896a32 32 0 0 1 0-64h151.84L616.96 631.04A32 32 0 0 1 640 576z m256-224a32 32 0 0 1-32-32v-151.84L662.88 375.04a32 32 0 1 1-45.92-44.64L814.24 128h-144a32 32 0 0 1 0-64H896a32 32 0 0 1 32 32V320a32 32 0 0 1-32 32zM209.76 832l144-0.8a32 32 0 0 1 0 64L131.68 896H128a32 32 0 0 1-32-32v-224a32 32 0 0 1 32-32 32 32 0 0 1 32 32V791.36l200.8-206.4a32 32 0 0 1 45.92 44.64z m152.64-457.28L160 177.76l0.8 144a32 32 0 0 1-32 32H128a32 32 0 0 1-32-32V96.32a32 32 0 0 1 32-32L352 64a32 32 0 0 1 0 64h-152l206.4 200.8a32 32 0 1 1-44.64 45.92z"  horiz-adv-x="1024" />

    
    <glyph glyph-name="tuli" unicode="&#58999;" d="M352.554667 841.258667H87.978667A88.106667 88.106667 0 0 1 0 753.237333v-264.618666a88.106667 88.106667 0 0 1 87.978667-87.936h264.576a88.106667 88.106667 0 0 1 88.021333 87.936V753.237333c0 48.597333-39.424 87.978667-88.021333 88.021334m645.717333-158.08L811.221333 870.272a88.106667 88.106667 0 0 1-124.458666 0l-25.898667-25.941333-161.194667-161.152a87.381333 87.381333 0 0 1-25.728-62.037334 87.381333 87.381333 0 0 1 25.728-62.336l25.856-25.941333 135.338667-135.381333 25.898667-25.856a87.978667 87.978667 0 0 1 124.458666 0l161.194667 161.28 25.856 25.813333a88.021333 88.021333 0 0 1 0 124.416M352.554667 312.576H87.978667A88.106667 88.106667 0 0 1 0 224.554667v-264.576A88.106667 88.106667 0 0 1 87.978667-128h264.576a88.106667 88.106667 0 0 1 88.021333 87.978667v264.576c0 48.64-39.424 87.978667-88.021333 88.021333m528.768 0h-264.661334a88.106667 88.106667 0 0 1-87.978666-88.021333v-264.576A88.106667 88.106667 0 0 1 616.618667-128h264.661333a88.106667 88.106667 0 0 1 87.978667 87.978667v264.576a88.106667 88.106667 0 0 1-87.936 88.021333"  horiz-adv-x="1024" />

    
    <glyph glyph-name="PDFxiazai" unicode="&#58913;" d="M471.04 582.4zM192 43.52c28.16 8.96 64 49.92 103.68 122.88-12.8-7.68-23.04-14.08-29.44-19.2-43.52-39.68-71.68-80.64-74.24-103.68z m281.6 541.44c3.84 19.2 7.68 40.96 11.52 53.76l1.28 10.24c6.4 34.56 3.84 55.04-6.4 70.4l-8.96 2.56-3.84-7.68c-10.24-25.6-10.24-76.8 3.84-133.12l2.56 3.84z m362.24-330.24c-6.4 6.4-24.32 23.04-110.08 23.04-3.84 0-15.36 1.28-20.48-5.12 44.8-19.2 88.32-34.56 116.48-34.56 3.84 0 7.68 0 11.52 1.28h2.56c2.56 1.28 5.12 1.28 5.12 7.68 0 2.56-1.28 5.12-5.12 7.68zM472.32 463.36c-14.08-46.08-30.72-115.2-53.76-174.08-12.8-30.72-11.52-25.6-20.48-46.08l7.68 2.56c81.92 23.04 139.52 28.16 193.28 38.4-10.24 8.96-20.48 15.36-26.88 21.76-38.4 42.24-51.2 49.92-99.84 157.44zM931.84 896H92.16C40.96 896 0 855.04 0 803.84v-839.68c0-51.2 40.96-92.16 92.16-92.16h839.68c51.2 0 92.16 40.96 92.16 92.16V803.84C1024 855.04 983.04 896 931.84 896z m-39.68-652.8c0-15.36-6.4-29.44-16.64-40.96s-29.44-17.92-56.32-17.92c-46.08 0-89.6 12.8-151.04 44.8-106.24-11.52-217.6-24.32-281.6-44.8-2.56-1.28-6.4-2.56-11.52-3.84-76.8-130.56-133.12-185.6-183.04-183.04-15.36 1.28-38.4 10.24-46.08 14.08l-8.96 8.96-1.28 5.12c-3.84 11.52-5.12 21.76-2.56 33.28 6.4 32 42.24 84.48 115.2 130.56 11.52 8.96 38.4 21.76 62.72 33.28 19.2 29.44 26.88 48.64 51.2 101.12 26.88 62.72 51.2 139.52 66.56 193.28-23.04 74.24-35.84 124.16-14.08 206.08 5.12 23.04 25.6 47.36 48.64 47.36h15.36c14.08 0 28.16-5.12 37.12-15.36 40.96-40.96 21.76-144.64 1.28-226.56-1.28-3.84-1.28-6.4-2.56-8.96 24.32-69.12 64-138.24 102.4-170.24 15.36-12.8 32-26.88 51.2-37.12 28.16 2.56 52.48 5.12 78.08 5.12 76.8 0 122.88-14.08 139.52-42.24 5.12-7.68 8.96-19.2 6.4-32z"  horiz-adv-x="1024" />

    
    <glyph glyph-name="celiang1" unicode="&#58626;" d="M985.82922339 151.10955133000004l-241.70528127 241.70528129 228.67465909 228.80241129 0.76650661 0.89425883c6.64306166 8.04832597 10.09234471 16.99091081 10.09234466 26.82775448 0 9.70909146-3.32153084 18.7794285-10.09234466 26.82775109l-0.38325331 0.51100557-165.31006208 165.43781087c-8.81483262 8.81483262-20.31244163 13.66938006-32.44880511 13.66937999-12.13636346 0-23.6339725-4.85454745-32.4488051-13.66937999l-224.07561611-223.9478639-240.17226812 240.30002034c-8.81483262 8.81483262-19.80143615 13.41387552-31.93780297 13.41387555-12.26411572 0-24.27273024-4.85454745-32.83205837-13.41387555L36.25450669 680.38279793c-7.66507276-7.66507276-12.39186786-17.37416416-13.41387555-27.97751438l-0.12775225-7.79282148 0.12775225-1.14976335c1.02201109-10.60335026 5.74880281-20.18468946 13.41387555-27.97751437l240.04451588-240.17226473-183.96173485-183.83398604c-5.74880281-5.74880281-9.58133919-12.51961673-12.00861457-21.33445272l-0.12775235-0.38325333-40.62488331-184.08949052c-5.23780074-20.31244163 0.51100549-41.39138996 15.45789767-56.46603087 10.85885133-11.75311009 25.2947379-18.01291845 41.64689442-18.01292193 3.06602977 0 5.74880281 0.25550102 7.79282151 0.51100551 1.40526435 0.12775226 2.55502431 0.25550102 3.44928302 0.25550105h1.40526442l186.13350585 40.88038784 1.40526433 0.38325329c8.17607823 2.68277647 14.6913877 6.64306166 19.92918838 11.88086237l184.72824492 184.72824488 241.70528133-241.70528473c8.81483262-8.81483262 19.92918841-13.41387552 31.93780291-13.41387553 12.39186786 0 24.27273024 4.85454745 32.8320584 13.41387553l177.82967874 177.95743104c18.26842293 18.26842293 18.26842293 46.75694289 0 65.02536587z m-287.05695981 558.78377758l76.52297151 76.65072379 137.20479545-137.20479548-76.52297151-76.65072375-137.20479545 137.20479544z m93.00287684-181.40671404l-491.58664086-492.48089973L162.98370409 173.21051054999998l491.58664092 492.48089976 137.20479541-137.20479544z m-471.78520475-109.3550333l-19.16267836 19.16268177 119.57512683 119.57513025-44.07416637 44.20191526-119.57512685-119.70287911-58.7655575 58.76555411 119.83063132 119.9583835-44.07416302 44.07416639-119.83063466-119.9583836-62.21483713 62.21483718 155.34546955 155.34546617L474.95214853 573.9660456500001l-154.96221286-154.83446408z m-77.92823584-413.14740291l-140.78182733-30.91579196 30.78803969 141.03733182 109.99378764-110.12153986z m590.97708167 139.24881757l-44.0741664 44.07416643-119.19187351-119.31962924-59.40431185 59.40431184 119.57512686 119.57513028-44.07416301 44.07416634-119.57513025-119.57513022-20.5679461 20.56794269 154.45121072 154.57896302 230.33542448-228.93016352-155.34546619-155.08996514-61.44833048 61.44833058 119.31962573 119.19187694z m0 0"  horiz-adv-x="1024" />

    
    <glyph glyph-name="daochutupian" unicode="&#59125;" d="M459.6 380.3c0 33.2-26.9 60.1-60.1 60.1s-60.2-26.9-60.2-60.1 26.9-60.1 60.2-60.1c33.1-0.1 60.1 26.8 60.1 60.1z m125.6-260.4c15.7 98.2 94.8 175.1 194 187.5l-10 32.5-50.8-16.9-44.1 83L532 200.6l-76.2 49.2-119.5-129.9h248.9zM259.7 67V498c0 7.7 6.2 13.9 13.9 13.9h607.1c7.7 0 13.9-6.2 13.9-13.9v-206.4c23.5-9.9 44.9-23.6 63.6-40.4V544.1c0 17.4-14.1 31.4-31.4 31.4h-134l-79.3 206.2c-6.2 16.2-24.4 24.3-40.6 18.1L20.2 548.9C4 542.6-4.1 524.4 2.1 508.2l194-504.5v-0.3h401.2c-7.7 20-12.6 41.3-14.3 63.6H259.7z m400.7 660c2.1 0.3 5.5 0.2 7.3-3.8l56.8-147.6H266.6L660.4 727zM196.1 180.9L77.9 488.1c-2.7 7.1 0.8 15.2 8 17.9l110.2 42.4v-367.5zM1022.5 96L871 217.5c-2.3 1.7-5.5 0.1-5.5-2.8v-75.1H670c-5.3 0-9.7-4.3-9.7-9.6v-75.7c0-5.3 4.3-9.7 9.7-9.7h195.5v-75.1c0-2.8 3.3-4.5 5.5-2.8l151.5 121.5c2.6 2 2.6 5.9 0 7.8z"  horiz-adv-x="1024" />

    
    <glyph glyph-name="tuodong" unicode="&#58892;" d="M186.182 570.182c0 25.693 20.945 46.545 46.871 46.545h557.894c25.926 0 46.871-20.666 46.871-46.545 0-25.693-20.945-46.546-46.871-46.546H233.053a46.592 46.592 0 0 0-46.871 46.546z m0-232.727c0 25.693 20.945 46.545 46.871 46.545h557.894c25.88 0 46.871-20.666 46.871-46.545 0-25.694-20.945-46.546-46.871-46.546H233.053a46.592 46.592 0 0 0-46.871 46.546z m0-232.728c0 25.693 20.945 46.546 46.871 46.546h557.894c25.88 0 46.871-20.666 46.871-46.546 0-25.693-20.945-46.545-46.871-46.545H233.053a46.592 46.592 0 0 0-46.871 46.545z"  horiz-adv-x="1024" />

    
    <glyph glyph-name="eye" unicode="&#58914;" d="M795.096615 641.102769c-100.667077 0-188.809846-81.762462-188.809846-188.809846 0-100.667077 81.841231-188.809846 188.809846-188.809846 107.047385 0 188.809846 81.841231 188.809847 188.809846 0 106.968615-88.064 188.809846-188.809847 188.809846zM788.795077 892.849231C474.190769 892.849231 197.238154 741.848615 27.254154 464.896c176.285538-276.952615 453.159385-453.159385 761.540923-453.159385 314.683077 0 591.635692 182.508308 761.540923 459.460923C1380.430769 748.071385 1103.556923 892.849231 788.795077 892.849231z m6.301538-755.239385A322.323692 322.323692 0 0 0 474.190769 458.594462a322.323692 322.323692 0 0 0 320.984616 320.984615c176.285538 0 314.683077-151.079385 314.683077-327.286154a311.611077 311.611077 0 0 0-314.683077-314.683077z"  horiz-adv-x="1654" />

    
    <glyph glyph-name="zhage" unicode="&#59010;" d="M870.912 767.1808H151.8592c-13.2096 0-23.9616-10.752-23.9616-23.9616v-719.0528c0-13.2096 10.752-23.9616 23.9616-23.9616h719.0528c13.2096 0 23.9616 10.752 23.9616 23.9616V743.2192c0 13.2096-10.8544 23.9616-23.9616 23.9616zM415.4368 287.8464V479.5392H607.232v-191.6928H415.4368zM607.232 239.9232V48.128H415.4368V239.9232H607.232z m-431.4112 239.616h191.6928v-191.6928H175.8208V479.5392z m239.616 47.9232V719.2576H607.232v-191.6928H415.4368z m239.7184-47.9232H846.848v-191.6928H655.1552V479.5392z m191.7952 47.9232H655.1552V719.2576H846.848v-191.7952zM367.5136 719.2576v-191.6928H175.8208V719.2576h191.6928zM175.8208 239.9232h191.6928V48.128H175.8208V239.9232zM655.1552 48.128V239.9232H846.848V48.128H655.1552z m0 0"  horiz-adv-x="1024" />

    
    <glyph glyph-name="mianji" unicode="&#58886;" d="M947.934 640.36c16.063 0 29.06 12.999 29.06 29.06V822.985c0 16.063-12.997 29.06-29.06 29.06h-153.6c-16.035 0-29.06-12.997-29.06-29.06v-47.734h-94.338a29.189 29.189 0 0 1-8.865 0H258.728V822.984c0 16.063-13.027 29.06-29.062 29.06H76.068c-16.064 0-29.063-12.997-29.063-29.06v-153.563c0-16.063 12.999-29.06 29.063-29.06h47.737v-506.582H76.068c-16.064 0-29.063-12.997-29.063-29.06v-153.563c0-16.063 12.999-29.06 29.063-29.06h153.598c16.035 0 29.062 12.997 29.062 29.06V-1.11h506.545v-47.735c0-16.063 13.026-29.06 29.06-29.06h153.6c16.063 0 29.06 12.997 29.06 29.06V104.718c0 16.063-12.997 29.06-29.06 29.06h-47.738v407.64c0.05 0.984 0.05 1.97 0 2.955V640.36h47.739zM823.397 793.924h95.473v-95.442h-95.473v95.442zM181.93 436.08a29.207 29.207 0 0 1 4.825 3.89l277.169 277.16h132.079L181.929 303.07V436.079z m-76.8 357.844h95.474v-46.628c-0.014-0.367-0.028-0.735-0.028-1.106s0.015-0.739 0.028-1.106v-46.602H105.13v95.442z m124.537-153.562c16.035 0 29.062 12.998 29.062 29.06v47.707h123.003L181.93 517.334V640.36h47.737z m-47.737-419.477l496.265 496.244h87.08v-35.607L217.51 133.78h-35.581v87.105z m-76.8-240.668v95.441h95.474v-46.6c-0.014-0.367-0.028-0.736-0.028-1.106s0.015-0.739 0.028-1.106v-46.628H105.13zM842.072 342.25L563.785 63.977a29.044 29.044 0 0 1-5.148-6.965H426.366L842.07 472.7v-130.449z m76.8-362.035h-95.474v95.441h95.473v-95.441zM794.333 133.779c-16.035 0-29.06-12.997-29.06-29.06v-47.706H639.011l203.061 203.051V133.78h-47.738z m47.737 421.109L344.174 57.012h-85.446v35.795L806.304 640.36h35.767v-85.472z"  horiz-adv-x="1024" />

    
    <glyph glyph-name="PPT" unicode="&#58903;" d="M899.102424-127.199375H124.096951C56.444097-127.199375 0.800625-71.956216 0.800625-3.903049V770.702111C1.200938 838.354965 56.444097 893.998436 124.096951 893.998436h775.005473c67.652854 0 123.296325-55.243159 123.296325-123.296325v-775.005473c0-67.652854-55.643471-122.896013-123.296325-122.896013zM540.021892 646.204848c107.684128 0 161.726349-46.035966 161.726349-138.107897 0-92.472244-54.442533-139.308835-162.126662-139.308835h-137.307271v-191.749805H348.272088V646.204848h191.749804zM401.913995 415.624707h134.905395c38.029711 0 65.65129 8.006255 84.065676 22.817826 17.613761 15.211884 26.820954 38.029711 26.820954 69.654418 0 31.624707-9.207193 54.442533-27.621579 68.453479-18.414386 15.612197-46.035966 22.817826-83.265051 22.817826h-134.905395V415.624707z"  horiz-adv-x="1024" />

    
    <glyph glyph-name="shengtai" unicode="&#59091;" d="M725.186709 474.403876c5.417109 2.559264 10.791564 4.947911 16.208673 7.507175a33.270435 33.270435 0 0 1 12.796321 12.838975 33.313089 33.313089 0 0 1-10.407674 43.251565 36.042971 36.042971 0 0 1-20.346151 5.758345c-6.867359-0.853088-13.5641-2.985808-19.66368-6.184889-10.620946-4.947911-20.985967-10.279711-31.137714-16.08071a354.287476 354.287476 0 0 1-117.29961-114.910963c-7.976373-12.625703-15.355585-25.677951-22.052327-38.94347a4496.413948 4496.413948 0 0 1-73.578846 133.934827c-5.374455 9.000079-10.578292 18.000158-16.208673 27.000237a33.355744 33.355744 0 0 1-37.962419 14.203916 32.843891 32.843891 0 0 1-20.218187-45.853483c2.559264-4.947911 5.843653-9.639895 8.658843-14.587806 19.450408-33.142472 38.261-66.668833 56.431776-100.579084 14.502497-26.701657 28.791722-53.701894 43.123602-80.446205l7.336558-14.33188c-8.658844-28.151906-15.526203-56.815665-20.516768-85.820659l-5.41711 4.691984a210.286209 210.286209 0 0 1-34.208831 24.185047c-7.976373 4.521367-15.568857 8.786807-24.867518 9.000079h-2.13272a33.398398 33.398398 0 0 1-25.763259-14.289225 32.630619 32.630619 0 0 1 7.507175-45.000396c3.241735-2.13272 6.696741-3.838896 10.151748-5.758344 4.691984-2.559264 9.256006-5.3318 13.649409-8.402918 19.834298-14.161262 35.829699-32.971854 46.4933-54.768254l2.81519-6.398161c-2.985808-61.934194-6.09958-123.0153 1.236978-184.82153 1.151669-9.597241 2.51661-19.27979 6.739396-27.938634a33.099817 33.099817 0 0 1 60.825179 1.36494c6.568778 15.952747 1.620867 36.597478 0.469199 53.488623-2.687227 39.753904-6.611433 79.166573-5.41711 119.04844 1.663522 51.953063 8.019028 103.650201 19.023864 154.408941 4.308095 19.919606 9.725204 39.583286 16.208674 58.863076l0.426544 1.06636c20.772695 61.848885 53.445968 120.072146 104.503288 161.788153 16.507254 12.49774 34.123523 23.459922 52.59288 32.758582z m219.286288 80.062315a472.482828 472.482828 0 0 1-49.095218 118.323315A457.29786 457.29786 0 0 1 813.566633 775.288038 438.913812 438.913812 0 0 1 517.843653 896h-11.601997C451.729328 895.146912 397.856816 884.270039 347.354002 863.923889A450.686428 450.686428 0 0 1 218.409741 782.965831a463.39744 463.39744 0 0 1-135.854276-217.409495 477.985246 477.985246 0 0 1 8.872116-290.604451 461.989845 461.989845 0 0 1 198.172359-242.021086 36.682787 36.682787 0 0 1 15.782129-3.156426 33.185126 33.185126 0 0 1 31.137715 40.436375 34.080868 34.080868 0 0 1-12.071196 18.59732l-2.601919 1.706176a399.586452 399.586452 0 0 0-45.896138 32.54531 398.69071 398.69071 0 0 0-131.503526 204.997063 411.231104 411.231104 0 0 0 36.981368 303.656699 395.278357 395.278357 0 0 0 95.844444 114.484419 369.301826 369.301826 0 0 0 399.586453 45.171013 384.913337 384.913337 0 0 0 117.043683-90.555299 400.652812 400.652812 0 0 0 82.450962-148.735905c21.327202-71.360817 22.990724-147.115038 4.734639-219.328943a403.084113 403.084113 0 0 0-99.299452-179.148494c-19.109173-19.66368-40.180448-37.322603-62.957899-52.678189-8.019028-5.3318-16.421945-10.066439-24.440974-15.398239a36.426861 36.426861 0 0 1-10.407674-12.412432 33.099817 33.099817 0 0 1 0.213272-27.938634 33.696979 33.696979 0 0 1 21.625783-18.042813 34.67803 34.67803 0 0 1 22.265598 2.13272l2.815191 1.535559a460.113051 460.113051 0 0 1 192.584632 220.608575 477.388084 477.388084 0 0 1 20.985966 303.016883z"  horiz-adv-x="1024" />

    
    <glyph glyph-name="line" unicode="&#58638;" d="M187.733333-128h-170.666666c-10.24 0-17.066667 6.826667-17.066667 17.066667v170.666666c0 10.24 6.826667 17.066667 17.066667 17.066667h170.666666c10.24 0 17.066667-6.826667 17.066667-17.066667v-170.666666c0-10.24-6.826667-17.066667-17.066667-17.066667zM34.133333-93.866667h136.533334v136.533334H34.133333v-136.533334zM1006.933333 691.2h-170.666666c-10.24 0-17.066667 6.826667-17.066667 17.066667v170.666666c0 10.24 6.826667 17.066667 17.066667 17.066667h170.666666c10.24 0 17.066667-6.826667 17.066667-17.066667v-170.666666c0-10.24-6.826667-17.066667-17.066667-17.066667zM853.333333 725.333333h136.533334V861.866667h-136.533334v-136.533334zM187.733333 42.66666699999996c-3.413333 0-10.24 0-13.653333 3.413333-6.826667 6.826667-6.826667 17.066667 0 23.893333l648.533333 648.533334c6.826667 6.826667 17.066667 6.826667 23.893334 0s6.826667-17.066667 0-23.893334l-648.533334-648.533333c0-3.413333-6.826667-3.413333-10.24-3.413333z"  horiz-adv-x="1024" />

    
    <glyph glyph-name="dandianchaxun" unicode="&#58965;" d="M891.2-128L579.2 182.4l4.8-241.6-118.4 118.4-6.4 324.8 324.8-6.4 118.4-118.4-241.6 4.8 310.4-310.4-80-81.6zM547.2 259.2l344-344L928-48 584 296l241.6-4.8-56 56-280 6.4 6.4-281.6 56-56-4.8 243.2z m-156.8-24H212.8v145.6h177.6v-145.6z m-145.6 32h116.8v83.2h-116.8v-83.2z m144 137.6H211.2v16c0 78.4 3.2 115.2 60.8 161.6 28.8 22.4 40 32 40 57.6 0 59.2-24 59.2-41.6 59.2-33.6 0-48-25.6-49.6-46.4l-1.6-14.4H52.8v16C52.8 801.6 187.2 896 280 896c112 0 224-70.4 224-227.2 0-67.2-12.8-123.2-75.2-172.8l-8-6.4c-24-19.2-30.4-24-30.4-70.4v-14.4z m-147.2 30.4h115.2c1.6 46.4 16 57.6 43.2 78.4l8 6.4c52.8 41.6 64 88 64 148.8C472 812.8 368 864 278.4 864c-64 0-185.6-68.8-195.2-196.8H192c8 32 33.6 62.4 78.4 62.4 48 0 72-30.4 72-91.2 0-41.6-22.4-59.2-51.2-81.6-43.2-33.6-48-57.6-49.6-121.6z"  horiz-adv-x="1024" />

    
    <glyph glyph-name="jingzhong_" unicode="&#58906;" d="M333.568 538.4704a20.1216 20.1216 0 0 0-40.2432 0.8192c0.6656 30.8736 17.0496 64.4096 40.2944 90.4704 23.3472 26.2144 54.3744 45.6704 84.3264 48.3328a20.1216 20.1216 0 1 0 3.4816-40.0896c-19.2-1.7408-40.5504-15.872-57.6512-35.072-17.4592-19.5584-29.696-43.5712-30.208-64.4608z m312.832-526.6944a154.9824 154.9824 0 0 0-44.6976-71.0144 133.9904 133.9904 0 0 0-89.7024-35.0208 133.9392 133.9392 0 0 0-89.6512 35.0208 155.2896 155.2896 0 0 0-44.6976 71.0144H100.5056a54.528 54.528 0 0 0-52.0704 38.2464 54.272 54.272 0 0 0 20.7872 61.184l51.968 36.4032a94.208 94.208 0 0 1 30.0032 33.6896c6.7584 13.0048 10.2912 27.8528 10.2912 43.8784V457.5232c0 96.4096 39.424 184.064 102.9632 247.552a351.1296 351.1296 0 0 0 158.0544 91.2896c8.192 17.92 19.456 33.0752 32.768 44.288A87.7056 87.7056 0 0 0 512 862.208c20.992 0 40.3968-7.936 56.7296-21.6064 13.312-11.2128 24.576-26.4192 32.768-44.288a351.1296 351.1296 0 0 0 158.0544-91.2896 349.3888 349.3888 0 0 0 102.912-247.552v-232.3456c0-16.0256 3.584-30.8736 10.3424-43.8784 6.8608-13.1072 16.896-24.576 30.0032-33.6896l52.0192-36.4032a54.4256 54.4256 0 0 0 1.024-88.8832 54.4256 54.4256 0 0 0-32.3584-10.5472h-277.1456z m-71.5776-41.0624a113.152 113.152 0 0 1 28.8256 41.0624H420.352c6.656-16.0768 16.5888-30.1056 28.8256-41.0624 17.2032-15.36 39.0144-24.576 62.8224-24.576 23.808 0 45.6704 9.216 62.8224 24.576zM481.1264 809.6768c-1.2288-1.024-2.4576-2.1504-3.6352-3.328a347.648 347.648 0 0 0 69.0688 0 80.6912 80.6912 0 0 1-3.7376 3.328 47.9232 47.9232 0 0 1-30.8224 12.1344 47.9744 47.9744 0 0 1-30.8224-12.1344z m450.56-731.4944l-51.968 36.4032a134.5536 134.5536 0 0 0-42.7008 48.128 134.3488 134.3488 0 0 0-14.9504 62.464V457.5232a309.0944 309.0944 0 0 1-91.136 218.9824A309.0944 309.0944 0 0 1 512 767.6416a309.1456 309.1456 0 0 1-218.9824-91.136 309.0944 309.0944 0 0 1-91.136-218.9824v-232.3456c0-22.5792-5.0688-43.7248-14.848-62.464-9.728-18.7904-24.1664-35.072-42.752-48.128l-52.0192-36.352a14.2848 14.2848 0 0 1-5.376-7.168 14.1312 14.1312 0 0 1 0-8.9088v-0.0512c1.024-3.072 2.7648-5.5808 5.12-7.2704a14.3872 14.3872 0 0 1 8.4992-2.6112h822.9888a14.336 14.336 0 0 1 8.4992 2.6112 14.1312 14.1312 0 0 1 5.12 7.2704 14.6432 14.6432 0 0 1 0 9.0112 14.4896 14.4896 0 0 1-5.376 7.0656z"  horiz-adv-x="1024" />

    
    <glyph glyph-name="shijian" unicode="&#59000;" d="M213.340415 86.347419c-165.93049 165.93049-165.93049 434.962058 0 600.892548 165.934739 165.93049 434.966307 165.93049 600.896797 0 165.93049-165.93049 165.93049-434.962058 0-600.892548-165.93049-165.934739-434.962058-165.934739-600.892548 0z m45.068747 45.064498c141.044315-141.040066 369.719237-141.040066 510.759303 0 141.044315 141.044315 141.044315 369.719237 0 510.759303-141.040066 141.044315-369.714988 141.044315-510.759303 0-141.040066-141.040066-141.040066-369.714988 0-510.759303z m190.183568 241.876448l0.169959 185.199535c0.016996 23.114357 10.397212 41.852282 33.511568 41.873527 23.110108 0.021245 29.275353-18.712432 29.258357-41.822539l-0.148714-166.244913 171.318175 0.157212c23.114357 0.016996 41.843784-6.148249 41.822539-29.262606-0.016996-23.110108-18.763419-33.490324-41.873527-33.511569l-189.682191-0.169958a41.61434 41.61434 0 0 0-26.717477 9.6239 41.720564 41.720564 0 0 0-17.65444 34.157411z"  horiz-adv-x="1024" />

    
    <glyph glyph-name="dituqiehuan" unicode="&#59842;" d="M640 640a128 128 0 0 0 128-128v-512a128 128 0 0 0-128-128H128a128 128 0 0 0-128 128V512a128 128 0 0 0 128 128h512z m0-64H128a64 64 0 0 1-63.552-56.512L64 512v-512a64 64 0 0 1 56.512-63.552L128-64h512a64 64 0 0 1 63.552 56.512L704 0V512a64 64 0 0 1-56.512 63.552L640 576zM256 896m128 0l512 0q128 0 128-128l0-512q0-128-128-128l-512 0q-128 0-128 128l0 512q0 128 128 128Z"  horiz-adv-x="1024" />

    
    <glyph glyph-name="ic-normal-fenping" unicode="&#59126;" d="M1152.157538 896a107.992615 107.992615 0 0 0 107.835077-108.386462v-602.03323c0-59.864615-48.443077-108.465231-108.071384-108.465231h-430.08v-123.904h117.287384a36.076308 36.076308 0 0 0 0-72.231385H420.470154a36.233846 36.233846 0 0 0 0 72.467693h119.492923v123.82523H107.992615A108.307692 108.307692 0 0 0 0 185.659077V787.613538C0 847.399385 48.443077 896 107.992615 896h1044.164923zM659.613538-46.631385v123.904h-59.31323v-123.904h59.31323z m528.384 232.290462V787.613538a36.627692 36.627692 0 0 1-10.476307 25.6 36.391385 36.391385 0 0 1-25.442462 10.397539H107.913846a35.761231 35.761231 0 0 1-35.997538-35.997539v-601.796923a35.997538 35.997538 0 0 1 35.997538-36.233846h1044.164923a35.997538 35.997538 0 0 1 35.997539 36.076308h-0.157539z m-75.303384 605.341538c23.315692 0 42.062769-18.983385 42.141538-42.535384v-527.36a42.299077 42.299077 0 0 0-42.141538-42.535385h-416.689231a37.651692 37.651692 0 0 0-37.415385 37.809231V753.191385c0 20.873846 16.777846 37.809231 37.415385 37.80923h416.768z m-15.281231-554.535384V733.026462H715.854769v-496.71877h381.558154zM147.062154 790.921846h417.555692c20.716308 0 37.494154-16.935385 37.494154-37.809231v-536.812307c0-20.952615-16.856615-37.809231-37.494154-37.809231H147.062154a42.299077 42.299077 0 0 0-42.141539 42.456615V748.465231c0 23.394462 18.904615 42.535385 42.141539 42.535384z m397.627077-554.535384V733.026462H162.264615v-496.71877h382.503385-0.157538z"  horiz-adv-x="1260" />

    
    <glyph glyph-name="shouye" unicode="&#58627;" d="M671.2-13.600000000000023h-37.6V249.29999999999995c0 29-32.6 57.5-65.7 57.5H455.3c-33.2 0-65.7-28.5-65.7-57.5v-262.9H352V249.29999999999995c0 54.4 54.5 95.1 103.3 95.1H568c48.8 0 103.3-40.7 103.3-95.1v-262.9zM806.1-32.39999999999998h-589c-45.7 0-82.8 42.1-82.8 93.9V531h37.6v-469.5c0-30.5 20.7-56.3 45.2-56.3h589c24.5 0 45.2 25.8 45.2 56.3V531h37.6v-469.5c0-51.7-37.2-93.9-82.8-93.9zM943.5 449.7c-4.2 0-8.4 1.4-11.9 4.3L537.2 779.4c-25.6 20.8-25.6 20.8-51.3-0.1L91.6 454c-8-6.6-19.8-5.4-26.4 2.5-6.6 8-5.5 19.8 2.5 26.4L462.1 808.4c41.2 33.5 57.8 33.5 98.9 0.1L955.5 483c8-6.6 9.1-18.4 2.5-26.4-3.7-4.6-9.1-6.9-14.5-6.9z"  horiz-adv-x="1024" />

    
    <glyph glyph-name="juanlian" unicode="&#59067;" d="M862.315789-74.105263V626.526316h53.894737v-754.526316H161.684211V626.526316h53.894736v-700.631579h646.736842z m53.894737 808.421052h161.684211v-53.894736H0V734.315789h107.789474V788.210526h53.894737v-53.894737h700.631578V788.210526h53.894737v-53.894737zM0 896h1077.894737v-53.894737H0V896z m997.052632-538.947368a26.947368 26.947368 0 1 0 0 53.894736 26.947368 26.947368 0 0 0 0-53.894736z m0-323.368421a26.947368 26.947368 0 1 0 0 53.894736 26.947368 26.947368 0 0 0 0-53.894736z m0 215.578947a26.947368 26.947368 0 1 0 0 53.894737 26.947368 26.947368 0 0 0 0-53.894737z m0-107.789474a26.947368 26.947368 0 1 0 0 53.894737 26.947368 26.947368 0 0 0 0-53.894737z"  horiz-adv-x="1077" />

    
    <glyph glyph-name="ceju" unicode="&#59057;" d="M994.730667 565.034667a42.666667 42.666667 0 0 0 0-60.373334L391.338667-98.730667a42.666667 42.666667 0 0 0-60.373334 0l-301.653333 301.696a42.666667 42.666667 0 0 0 0 60.373334L632.618667 866.730667a42.666667 42.666667 0 0 0 60.373333 0l301.653333-301.696zM512 685.653333l90.496-90.496-45.226667-45.226666-90.538666 90.453333-45.226667-45.226667 120.661333-120.704-45.226666-45.226666-120.704 120.661333-45.226667-45.226667 150.826667-150.869333-45.226667-45.226667-150.869333 150.826667-45.269334-45.226667 90.496-90.538666-45.226666-45.226667-90.538667 90.453333-45.226667-45.226666 120.661334-120.704-45.226667-45.226667-120.704 120.661333-45.226667-45.226666 301.653334-301.738667L964.565333 534.869333l-301.696 301.653334-60.373333-60.330667 150.869333-150.826667-45.226666-45.226666-150.869334 150.826666L512 685.738667z"  horiz-adv-x="1024" />

    
    <glyph glyph-name="Word" unicode="&#58991;" d="M905.968847 896H114.841121C51.040498 896 0 844.959502 0 781.158879v-794.317758c0-63.800623 51.040498-114.841121 114.841121-114.841121h794.317758c63.800623 0 114.841121 51.040498 114.841121 114.841121V781.158879C1020.809969 844.959502 969.76947 896 905.968847 896z m-232.872274-746.46729h-70.180685l-92.510904 350.903427-92.510903-350.903427h-70.180685L236.062305 615.277259h79.750779l73.370717-350.903427 92.510903 350.903427h63.800623l92.510904-350.903427 70.180685 350.903427h79.750779l-114.841122-465.744549z"  horiz-adv-x="1027" />

    
    <glyph glyph-name="yiliaofuwu-chengzhenbaoxianzhuyuan" unicode="&#59028;" d="M509.194521 896c281.22126 0 509.194521-227.97326 509.19452-509.194521S790.415781-122.389041 509.194521-122.389041 0 105.584219 0 386.805479 227.97326 896 509.194521 896z m242.084821-589.290959l-76.982356-6.957589-76.982356 6.971616-0.070137-2.482849c-1.066082-19.526137-14.770849-32.375233-34.928219-32.375233-13.985315-160.347178 111.980712-216.12011 111.980712-216.120109s125.966027 55.772932 111.966685 216.120109c-20.984986 0-34.984329 13.943233-34.984329 34.858082z m-107.449863-36.639562s25.179178-46.290411 30.902357-57.736767c1.823562 3.689205 31.140822 57.736767 31.140822 57.736767h31.701917l-40.006137-67.822465h27.844384v-24.828493h-36.751781v-10.801096h36.751781v-25.024877h-36.751781v-30.07474h-28.770192V141.606575h-38.098411v25.01085h38.098411v10.815123h-38.098411v24.828493h28.854357l-39.641425 67.822466zM520.696986 724.402849a42.853699 42.853699 0 0 1-32.852164 0l-187.784767-97.322082-2.062028-1.080109a28.714082 28.714082 0 0 1-14.350027-24.505863v-399.317918h-32.852164l-1.963836-0.070137c-6.901479-0.603178-10.366247-4.348493-10.366247-8.388384V146.936986l0.084165-1.009972c0.631233-3.745315 4.727233-7.420493 12.245918-7.420493h232.097315A203.860164 203.860164 0 0 0 476.931507 187.616438a202.69589 202.69589 0 0 0 56.081534 140.245918V669.457534c-0.070137 43.70937-0.96789 50.87737-12.316055 54.945315z m-89.256328-414.481534c4.783342 0 8.542685-3.689205 8.542684-8.430466l-1.038027-39.739616-0.098192-1.318575a8.346301 8.346301 0 0 0-8.472548-7.069809h-46.178191l-1.332603 0.084165a8.472548 8.472548 0 0 0-4.699178 2.342575 8.220055 8.220055 0 0 0-2.468822 5.961644V301.518904l0.112219 1.374685a8.374356 8.374356 0 0 0 8.388384 7.013699zM628.848219 666.848438a27.984658 27.984658 0 0 1-22.640219-1.066082c-8.654904-3.829479-14.223781-12.905205-14.293918-61.06126v-233.864767a202.078685 202.078685 0 0 0 68.565918 19.203507V413.457534l0.098192 1.34663c0.561096 3.927671 3.562959 6.831342 7.336329 6.831343h41.100274l1.220383-0.112219c3.562959-0.617205 6.214137-3.927671 6.214137-8.065754v-25.642082a202.134795 202.134795 0 0 0 71.764164-27.746192V559.48274l-0.070137 2.31452a27.241205 27.241205 0 0 1-14.22378 21.952877l-142.672658 82.032219zM431.440658 429.098082a8.416438 8.416438 0 0 0 8.542684-8.45852l-1.038027-40.034192-0.098192-1.332603a8.458521 8.458521 0 0 0-2.356602-4.657096 8.542685 8.542685 0 0 0-6.115946-2.398685h-46.178191l-1.332603 0.084165a8.472548 8.472548 0 0 0-4.699178 2.342575 8.220055 8.220055 0 0 0-2.468822 5.961644v40.034192l0.112219 1.388712a8.374356 8.374356 0 0 0 8.388384 7.069808z m277.588164 108.403726c4.15211 0 7.434521-3.647123 7.43452-8.206027v-38.715617l-0.084164-1.29052a8.360329 8.360329 0 0 0-2.048-4.516822 6.999671 6.999671 0 0 0-5.302356-2.356603h-41.100274l-1.192329 0.098192a6.999671 6.999671 0 0 0-4.110027 2.258411 8.542685 8.542685 0 0 0-2.132165 5.82137v38.659507l0.098192 1.34663c0.561096 3.955726 3.562959 6.901479 7.336329 6.901479z m-277.602192 10.380274c4.79737 0 8.556712-3.675178 8.556712-8.388383l-1.038027-40.398904-0.098192-1.290521a8.458521 8.458521 0 0 0-2.356602-4.671123 8.584767 8.584767 0 0 0-6.115946-2.42674h-46.178191l-1.332603 0.098192a8.542685 8.542685 0 0 0-4.699178 2.328548 8.24811 8.24811 0 0 0-2.468822 6.003726v40.356822l0.112219 1.374685a8.346301 8.346301 0 0 0 8.388384 7.013698z"  horiz-adv-x="1024" />

    
    <glyph glyph-name="duobianxing" unicode="&#58833;" d="M58.3 765a73 73 0 1 1 146 0 73 73 0 1 1-146 0zM819.9 557.5a73 73 0 1 1 146 0 73 73 0 1 1-146 0zM819.9 115.5a73 73 0 1 1 146 0 73 73 0 1 1-146 0zM165.9 11.5a73 73 0 1 1 146 0 73 73 0 1 1-146 0zM213.5-22.9L95.2 805.9l827.7-225.5v-490.5L213.5-22.9z m-46 747L264.3 46l598.6 95.2V534.6L167.5 724.1z"  horiz-adv-x="1024" />

    
    <glyph glyph-name="yingyan" unicode="&#58905;" d="M958.886 571.792c-24.429 57.756-59.397 109.623-103.935 154.16-44.536 44.537-96.403 79.505-154.159 103.935C640.987 855.181 577.469 868.007 512 868.007c-65.468 0-128.987-12.826-188.792-38.121-57.756-24.429-109.623-59.397-154.16-103.935s-79.505-96.404-103.935-154.16C39.819 511.987 26.993 448.468 26.993 383c0-65.469 12.826-128.987 38.121-188.792 24.429-57.756 59.397-109.623 103.935-154.159 44.537-44.537 96.404-79.506 154.16-103.935 59.804-25.295 123.323-38.121 188.792-38.121 65.469 0 128.987 12.826 188.792 38.121 57.756 24.429 109.623 59.397 154.159 103.935 44.537 44.536 79.506 96.403 103.935 154.159 25.295 59.805 38.121 123.323 38.121 188.792-0.001 65.468-12.827 128.987-38.122 188.792zM512-70.007c-54.334 0-106.463 9.619-154.777 27.237a445.81 445.81 0 0 1 12.247-3.39c-71.492 30.814-119.255 84.434-119.255 146.064a141.45 141.45 0 0 0 51.153 103.545l6.471 5.854a246.818 246.818 0 0 0 20.337 14.79 225.29 225.29 0 0 0 86.286 30.816 343.573 343.573 0 0 0 197.528-21.264c56.394-24.959 46.839-61.63 46.839-61.63a146.653 146.653 0 0 1 41.604 37.594 115.248 115.248 0 0 1 26.809 84.743c-7.394 43.142-88.749 102.924-88.749 102.924-35.439 68.107-134.356 118.641-165.172 136.825-21.261 12.325-160.858 83.816-246.526 127.884a82.908 82.908 0 0 1-37.286 8.938 87.797 87.797 0 0 1-32.527-6.849C240.032 768.753 368.308 836.007 512 836.007c249.789 0 453.007-203.218 453.007-453.007 0-249.789-203.218-453.007-453.007-453.007zM339 509s94.5-24.5 189-103c0 0-44.5-37.5-94.5-19s-78 83-94.5 122z"  horiz-adv-x="1024" />

    
    <glyph glyph-name="zuobiao" unicode="&#58888;" d="M861.404392 76.874963H162.295754c-14.168082 0-25.187701 11.019619-25.187701 25.187702 0 14.168082 11.019619 25.187701 25.187701 25.187701h699.108638c14.168082 0 25.187701-11.019619 25.187702-25.187701 0-14.168082-11.019619-25.187701-25.187702-25.187702z m0 0M137.108053 108.35959V667.36164c0 12.593851 11.019619 23.61347 25.187701 23.61347 14.168082 0 25.187701-11.019619 25.187701-23.61347v-566.873207c0-11.019619-11.019619-23.61347-25.187701-23.61347-14.168082 0-25.187701 15.742313-25.187701 31.484627z m140.106588 546.408199h42.504246L379.539678 557.165447l59.820791 97.602342h42.504245L398.505417 525.605857v-86.582724h-34.633089V525.605857L277.214641 654.767789z m0 0M845.662079 411.436603L772.647731 301.540264l71.964861-108.247145h-44.978039l-41.604685 69.416105c-2.248902 3.673206-5.397365 9.370425-9.445388 16.941728h-0.824597c-0.149927-0.824597-3.448316-6.446852-9.895169-16.941728l-42.429282-69.416105h-44.378331l74.138799 107.04773L654.430454 411.36164h44.978038l40.855051-72.939385c2.473792-4.497804 5.547291-10.269985 9.070571-17.391508h0.824598l53.074084 90.330893h42.429283z"  horiz-adv-x="1024" />

    


  </font>
</defs>
</svg>
